<svg xmlns="http://www.w3.org/2000/svg"><symbol viewBox="0 0 20 20" id="icon-arrow-down" xmlns="http://www.w3.org/2000/svg"><path d="M10.066 13.783L3.348 7.066l1.415-1.414 5.303 5.303 5.303-5.303 1.414 1.414z" fill-rule="evenodd"/></symbol><symbol viewBox="0 0 20 20" id="icon-arrow-right" xmlns="http://www.w3.org/2000/svg"><path d="M15.96 9.5l-3.35-4.188a.5.5 0 11.78-.624L17.64 10l-4.25 5.312a.5.5 0 11-.78-.624l3.35-4.188H2.5a.5.5 0 110-1h13.46z"/></symbol><symbol viewBox="0 0 20 20" id="icon-arrowhead-left" xmlns="http://www.w3.org/2000/svg"><path d="M5.9 9.7l1.4-1.4L12.6 3 14 4.4 8.7 9.7 14 15l-1.4 1.4-5.3-5.3-1.4-1.4z"/></symbol><symbol viewBox="0 0 20 20" id="icon-arrowhead-right" xmlns="http://www.w3.org/2000/svg"><path d="M14.132 9.718l-1.414 1.414-5.304 5.303L6 15.021l5.303-5.303L6 4.414 7.414 3l5.304 5.303z"/></symbol><symbol viewBox="0 0 20 20" id="icon-calender" xmlns="http://www.w3.org/2000/svg"><path d="M7 1v2h6V1h3v2h3v16H1V3h3V1h3zm11 7H2v10h16V8zM4 4H2v3h16V4h-2v2h-3V4H7v2H4V4zm2-2H5v3h1V2zm9 0h-1v3h1V2z"/></symbol><symbol viewBox="0 0 20 20" id="icon-close" xmlns="http://www.w3.org/2000/svg"><path d="M11.132 9.718l5.303 5.303-1.414 1.414-5.303-5.303-5.304 5.303L3 15.021l5.303-5.303L3 4.414 4.414 3l5.304 5.303L15.021 3l1.414 1.414z" fill-rule="evenodd"/></symbol><symbol viewBox="0 0 20 20" id="icon-contact" xmlns="http://www.w3.org/2000/svg"><path d="M19 4v12H1V4h18zm-6.5 6.5L10 12.664 7.5 10.5 3 15h14l-4.5-4.5zM2 5.5v9L6.5 10 2 5.5zm16 0L13.5 10l4.5 4.5v-9zM17 5H3l7 6.5L17 5z"/></symbol><symbol viewBox="0 0 20 20" id="icon-document" xmlns="http://www.w3.org/2000/svg"><path d="M6 16H2V1h12v3h4v15H6v-3zm0-1V4h7V2H3v13h3zm1 3h10V5H7v13zM9 8V7h6v1H9zm0 3v-1h6v1H9zm0 3v-1h6v1H9z"/></symbol><symbol viewBox="0 0 20 18.5" id="icon-download" xmlns="http://www.w3.org/2000/svg"><path d="M0 17.5h20v1H0zm10.5-3.55l4.26-3.45a.5.5 0 11.62.78l-5.31 4.25-5.31-4.21a.514.514 0 01.62-.82l4.12 3.33V.5a.5.5 0 011 0z"/></symbol><symbol viewBox="0 0 20 20" id="icon-external-page" xmlns="http://www.w3.org/2000/svg"><path d="M4 6V2h16v12h-4v4H0V6h4zm1 0h11v7h3V4H5v2zM1 8v9h14V8H1z" /></symbol><symbol viewBox="0 0 20 20" id="icon-external-page--white" xmlns="http://www.w3.org/2000/svg"><path d="M4 6V2h16v12h-4v4H0V6h4zm1 0h11v7h3V4H5v2zM1 8v9h14V8H1z" /></symbol><symbol viewBox="0 0 20 20" id="icon-facebook" xmlns="http://www.w3.org/2000/svg"><path fill-rule="evenodd" d="M20 10c0-5.523-4.477-10-10-10S0 4.477 0 10c0 4.991 3.657 9.128 8.438 9.878v-6.987h-2.54V10h2.54V7.797c0-2.506 1.492-3.89 3.777-3.89 1.094 0 2.238.195 2.238.195v2.46h-1.26c-1.243 0-1.63.771-1.63 1.562V10h2.773l-.443 2.89h-2.33v6.988C16.343 19.128 20 14.991 20 10"/></symbol><symbol viewBox="0 0 20 20" id="icon-language-global" xmlns="http://www.w3.org/2000/svg"><path d="M10 1a9 9 0 110 18 9 9 0 010-18zM7.411 14.237a21.158 21.158 0 001.014 3.455l.066.166a8.042 8.042 0 002.696.055l.088-.22a21.252 21.252 0 001.024-3.504 14.198 14.198 0 00-4.888.048zm5.852.142a22.15 22.15 0 01-.923 3.274 8.01 8.01 0 003.64-2.338l.23.107a14.368 14.368 0 00-2.947-1.043zm-6.813.071c-.826.212-1.64.5-2.429.863a7.995 7.995 0 003.3 2.227 22.055 22.055 0 01-.87-3.09zm-3.058.061l-.033.015c.943-.456 1.92-.81 2.915-1.062a21.701 21.701 0 01-.251-2.463H2.062a7.954 7.954 0 001.33 3.51zm14.546-3.51h-4.26a22.21 22.21 0 01-.24 2.395c1.069.247 2.119.612 3.13 1.095l.04.02a7.954 7.954 0 001.33-3.51zm-5.245 0H7.007c.036.754.111 1.507.227 2.255a15.135 15.135 0 015.239-.053c.112-.73.185-1.466.22-2.203zm4.205-5.056l.102-.05a15.333 15.333 0 01-3.48 1.291c.12.934.18 1.874.18 2.814H18c0-1.48-.402-2.866-1.102-4.055zM2.004 9.751L2 10h4c0-.964.063-1.929.188-2.887a15.24 15.24 0 01-2.829-1.04l-.257-.128a7.957 7.957 0 00-1.098 3.806zm5.148-2.42l-.01.074a21.27 21.27 0 00-.159 2.596h5.734c0-.874-.054-1.749-.162-2.618-1.79.306-3.618.288-5.403-.053zM10 2c-.515 0-1.02.049-1.508.142l.108-.27a21.253 21.253 0 00-1.299 4.469 14.23 14.23 0 005.107.054A21.205 21.205 0 0011.28 2.32l-.093-.234A8.065 8.065 0 0010 2zm2.338.347l-.15-.404a22.222 22.222 0 011.184 4.251c.969-.235 1.92-.574 2.839-1.016l.125-.062a8.012 8.012 0 00-3.998-2.769zm-5.02.113l-.159.059a8.021 8.021 0 00-3.495 2.596L3.434 5c.937.484 1.912.858 2.907 1.122.22-1.24.546-2.465.978-3.662z"/></symbol><symbol viewBox="0 0 20 20" id="icon-linkedin" xmlns="http://www.w3.org/2000/svg"><path fill-rule="evenodd" d="M18.524 0H1.476C.661 0 0 .661 0 1.476v17.048C0 19.339.661 20 1.476 20h17.048c.815 0 1.476-.661 1.476-1.476V1.476C20 .661 19.34 0 18.524 0zm-1.478 17.193h-3.007v-4.956c0-1.462-.654-1.913-1.498-1.913-.892 0-1.767.638-1.767 1.95v4.92H7.767V8.118h2.892v1.257h.038c.291-.558 1.307-1.512 2.858-1.512 1.678 0 3.49.945 3.49 3.717v5.612zM4.458 6.855c-.958 0-1.734-.693-1.734-1.64s.776-1.64 1.734-1.64c.957 0 1.733.693 1.733 1.64s-.776 1.64-1.733 1.64zM2.954 17.186h3.007V8.112H2.954v9.074z"/></symbol><symbol viewBox="0 0 20 20" id="icon-location" xmlns="http://www.w3.org/2000/svg"><path d="M10 1c4 0 7 3 7 7s-5 11-7 11-7-7-7-11 3-7 7-7zm0 1C6.552 2 4 4.552 4 8c0 1.613 1.023 4.107 2.582 6.445C7.96 16.512 9.512 18 10 18c.487 0 2.04-1.488 3.418-3.555C14.977 12.107 16 9.613 16 8c0-3.448-2.552-6-6-6zm0 2a3.5 3.5 0 110 7 3.5 3.5 0 010-7zm0 1a2.5 2.5 0 100 5 2.5 2.5 0 000-5z"/></symbol><symbol viewBox="0 0 20 20" id="icon-mute" xmlns="http://www.w3.org/2000/svg"><path d="M7 8.566v2.868l3 1.8V6.766l-3 1.8zM6 12H4V8h2l5-3v10l-5-3zm0-1V9H5v2h1zm9.571-1L17 11.429l-.571.571L15 10.571 13.571 12 13 11.429 14.429 10 13 8.571 13.571 8 15 9.429 16.429 8l.571.571L15.571 10z"/></symbol><symbol viewBox="0 0 20 20" id="icon-news" xmlns="http://www.w3.org/2000/svg"><path d="M4 3V2h7.222v1H4zm0 11v-1h12v1H4zm0 2v-1h12v1H4zm0 2v-1h6v1H4zM4 5v6h12V5H4zM3 4h14v8H3V4z"/></symbol><symbol viewBox="0 0 20 20" id="icon-pause" xmlns="http://www.w3.org/2000/svg"><path d="M7 6h2v8H7zm4 0h2v8h-2z"/></symbol><symbol viewBox="0 0 20 20" id="icon-play" xmlns="http://www.w3.org/2000/svg"><path d="M15.106 10.447l-8.382 4.191A.5.5 0 016 14.191V5.809a.5.5 0 01.724-.447l8.382 4.19a.5.5 0 010 .895z"/></symbol><symbol viewBox="0 0 20 20" id="icon-plus" xmlns="http://www.w3.org/2000/svg"><path d="M9 9V3h2v6h6v2h-6v6H9v-6H3V9z"/></symbol><symbol viewBox="0 0 20 20" id="icon-project" xmlns="http://www.w3.org/2000/svg"><path d="M11 17H9v1h2v-1zm1 0l-.004 1.341c.004.365-.371.659-.844.659H8.848C8.375 19 8 18.71 8 18.341V16c0-1.663-.559-2.563-.988-2.99C6 12 5 10.64 5 9a5 5 0 1110 0c0 1.64-1 3-2.01 4.007-.196.197-.99 1.1-.99 2.993v1zM9.5 3V1h1v2h-1zm-6 7.5h-2v-1h2v1zm13-1h2v1h-2v-1zM4.697 5.404L3.282 3.99l.708-.708 1.414 1.415-.707.707zm9.9-.707l1.413-1.415.708.708-1.415 1.414-.707-.707zM9 16h2c0-1.758.557-2.975 1.284-3.7C13.394 11.192 14 10.11 14 9a4 4 0 10-8 0c0 1.112.606 2.192 1.718 3.302C8.506 13.087 9 14.329 9 16z"/></symbol><symbol viewBox="0 0 20 20" id="icon-quote" xmlns="http://www.w3.org/2000/svg"><path d="M2 3h6.222v7c0 4.667-3.11 6.222-4.666 7L2 13.889C4.333 13.11 5.111 12.333 5.111 10H2V3zm9 0h6.222v7c0 4.667-3.11 6.222-4.666 7L11 13.889c2.333-.778 3.111-1.556 3.111-3.889H11V3z"/></symbol><symbol viewBox="0 0 20 20" id="icon-rss" xmlns="http://www.w3.org/2000/svg"><path d="M15 17c0-6-5-11-11-11V4c7 0 13 6 13 13h-2zM4 8c6 0 9 5 9 9h-2c0-4-3-7-7-7V8zm2 9a2 2 0 110-4 2 2 0 010 4z"/></symbol><symbol viewBox="0 0 20 20" id="icon-search" xmlns="http://www.w3.org/2000/svg"><path d="M14.153 13.738l3.09 3.09a1 1 0 01-1.415 1.415l-3.234-3.235a7 7 0 111.559-1.27zM9 14A5 5 0 109 4a5 5 0 000 10z"/></symbol><symbol viewBox="0 0 20 20" id="icon-socialfeed" xmlns="http://www.w3.org/2000/svg"><path fill-rule="evenodd" d="M6.467 11.543a2.5 2.5 0 110-3.085l6.618-3.31A2.503 2.503 0 0115.5 2a2.5 2.5 0 11-1.967 4.043L6.915 9.35a2.503 2.503 0 010 1.298l6.618 3.308a2.5 2.5 0 11-.448.894l-6.618-3.308z"/></symbol><symbol viewBox="0 0 20 20" id="icon-sound" xmlns="http://www.w3.org/2000/svg"><path d="M7 8.566v2.868l3 1.8V6.766l-3 1.8zM6 12H4V8h2l5-3v10l-5-3zm0-1V9H5v2h1zm7 .5a1.5 1.5 0 000-3v3z"/><path d="M13 12.25a2.25 2.25 0 100-4.5M13 7a3 3 0 110 6"/></symbol><symbol viewBox="0 0 20 20" id="icon-stop" xmlns="http://www.w3.org/2000/svg"><path d="M6 6h8v8H6z"/></symbol><symbol viewBox="0 0 20 20" id="icon-twitter" xmlns="http://www.w3.org/2000/svg"><path d="M20 3.88c-.73.32-1.542.52-2.353.64a3.818 3.818 0 001.785-2.24c-.811.48-1.663.8-2.596 1-.73-.8-1.826-1.28-3.002-1.28-2.272-.04-4.098 1.8-4.098 4 0 .32.04.64.122.92a11.734 11.734 0 01-8.479-4.2 3.86 3.86 0 00-.568 2.04c0 1.4.73 2.64 1.826 3.36-.69-.04-1.298-.2-1.866-.52v.04c0 1.96 1.42 3.6 3.286 3.96-.325.08-.69.16-1.096.16a4.54 4.54 0 01-.77-.08 4.102 4.102 0 003.813 2.8 8.066 8.066 0 01-5.03 1.76c-.325 0-.65 0-.974-.04C1.826 17.36 3.976 18 6.288 18c7.546 0 11.684-6.16 11.684-11.52v-.52A9.07 9.07 0 0020 3.88z"/></symbol><symbol viewBox="0 0 20 20" id="icon-unit" xmlns="http://www.w3.org/2000/svg"><path d="M4.5 1A2.5 2.5 0 015 5.95v8.1c.98.2 1.751.97 1.95 1.95h5.55a2.5 2.5 0 002.495-2.336L15 13.5v-2.55a2.5 2.5 0 111 0v2.55a3.5 3.5 0 01-3.308 3.495L12.5 17H6.95A2.5 2.5 0 114 14.05v-8.1A2.5 2.5 0 014.5 1z"/></symbol><symbol viewBox="0 0 512 512" id="icon-star" xmlns="http://www.w3.org/2000/svg"><path d="M358.947 410.225c-2.692 0-5.409-.846-7.691-2.565l-94.864-71.146-94.865 71.148a12.732 12.732 0 01-15.178.127 12.785 12.785 0 01-4.691-14.436l35.74-107.195-83.173-71.329a12.745 12.745 0 01-3.691-14.153 12.82 12.82 0 0112.024-8.383h106.145l35.536-106.608c3.513-10.461 20.82-10.461 24.332 0l35.512 106.608h106.145a12.818 12.818 0 0112.023 8.383 12.753 12.753 0 01-3.69 14.178l-83.173 71.33 35.74 107.195a12.774 12.774 0 01-4.692 14.436 12.73 12.73 0 01-7.489 2.41zM256.391 307.669c2.691 0 5.41.846 7.69 2.565l69.74 52.303-25.486-76.43a12.869 12.869 0 013.821-13.795l63.432-54.354h-80.739c-5.511 0-10.409-3.537-12.178-8.769l-26.28-78.916-26.281 78.891c-1.769 5.229-6.665 8.767-12.179 8.767H137.22l63.432 54.355c3.949 3.41 5.487 8.846 3.821 13.795l-25.511 76.455 69.737-52.303c2.282-1.718 5-2.564 7.692-2.564zm0 205.112C115.018 512.781 0 397.762 0 256.391 0 115.017 115.017 0 256.391 0s256.39 115.017 256.39 256.391c0 141.371-115.016 256.39-256.39 256.39zm0-487.141C129.143 25.64 25.64 129.17 25.64 256.391c0 127.247 103.504 230.75 230.751 230.75 127.246 0 230.751-103.503 230.751-230.75 0-127.221-103.505-230.751-230.751-230.751z"/></symbol><symbol viewBox="0 0 512 512" id="icon-star-filled" xmlns="http://www.w3.org/2000/svg"><path d="M358.947 410.225c-2.692 0-5.409-.846-7.691-2.565l-94.864-71.146-94.865 71.148a12.732 12.732 0 01-15.178.127 12.785 12.785 0 01-4.691-14.436l35.74-107.195-83.173-71.329a12.745 12.745 0 01-3.691-14.153 12.82 12.82 0 0112.024-8.383h106.145l35.536-106.608c3.513-10.461 20.82-10.461 24.332 0l35.512 106.608h106.145a12.818 12.818 0 0112.023 8.383 12.753 12.753 0 01-3.69 14.178l-83.173 71.33 35.74 107.195a12.774 12.774 0 01-4.692 14.436 12.73 12.73 0 01-7.489 2.41zM256.391 512.781C115.018 512.781 0 397.762 0 256.391 0 115.017 115.017 0 256.391 0s256.39 115.017 256.39 256.391c0 141.371-115.016 256.39-256.39 256.39zm0-487.141C129.143 25.64 25.64 129.17 25.64 256.391c0 127.247 103.504 230.75 230.751 230.75 127.246 0 230.751-103.503 230.751-230.75 0-127.221-103.505-230.751-230.751-230.751z"/></symbol>
<symbol viewBox="0 0 512 512" id="icon-person" xmlns="http://www.w3.org/2000/svg"><path d="M255.89 0C114.793 0 0 114.792 0 255.891 0 396.988 114.792 511.78 255.89 511.78s255.89-114.791 255.89-255.889C511.78 114.792 396.988 0 255.89 0zm0 486.19c-126.998 0-230.301-103.302-230.301-230.3 0-126.974 103.303-230.302 230.301-230.302S486.191 128.916 486.191 255.89c0 126.999-103.303 230.3-230.301 230.3zm-56.707-305.843c0-31.302 25.405-56.709 56.707-56.709 31.304 0 56.708 25.405 56.708 56.709 0 31.303-25.402 56.709-56.708 56.709-31.303 0-56.707-25.407-56.707-56.709zm209.263 159.328c0-47.781-68.302-86.513-152.556-86.513s-152.555 38.731-152.555 86.513c0 38.837 305.111 38.839 305.111 0z"/></symbol><symbol viewBox="0 0 512 512" id="icon-photo" xmlns="http://www.w3.org/2000/svg"><path d="M255.9,0C114.8,0,0,114.8,0,255.9C0,397,114.8,511.8,255.9,511.8S511.8,397,511.8,255.9C511.8,114.8,397,0,255.9,0z M255.9,486.2c-127,0-230.3-103.3-230.3-230.3c0-127,103.3-230.3,230.3-230.3s230.3,103.3,230.3,230.3 C486.2,382.9,382.9,486.2,255.9,486.2z"/><path d="M412.5,177.3v156.6c0,4.3-3.5,7.8-7.8,7.8c-4.3,0-7.8-3.5-7.8-7.8V185.2H161.9v203.6H342c4.3,0,7.8,3.5,7.8,7.8 c0,4.3-3.5,7.8-7.8,7.8H154.1c-4.3,0-7.8-3.5-7.8-7.8V177.3c0-4.3,3.5-7.8,7.8-7.8h250.5C409,169.5,412.5,173,412.5,177.3z M379.6,282.3c1,1.3,1.6,3,1.6,4.7v62.6c0,4.3-3.5,7.8-7.8,7.8H185.4c-4.3,0-7.8-3.5-7.8-7.8v-39.1c0-2.1,0.8-4.1,2.3-5.5l47-47 c3.1-3.1,8-3.1,11.1,0l32.6,32.5l49.4-70.6c1.4-2.1,3.8-3.3,6.3-3.3c0,0,0.1,0,0.1,0c2.5,0,4.8,1.2,6.3,3.1L379.6,282.3z M365.5,289.6l-38.9-51.9L278,307.1c-1.3,1.9-3.4,3.1-5.7,3.3c-2.3,0.2-4.6-0.6-6.2-2.3l-33.6-33.6l-39.1,39.1v28.1h172.2V289.6z M216.7,224.3c0-8.6-7-15.7-15.7-15.7s-15.7,7-15.7,15.7s7,15.7,15.7,15.7S216.7,233,216.7,224.3z M342,130.4 c0-4.3-3.5-7.8-7.8-7.8h-227c-4.3,0-7.8,3.5-7.8,7.8v195.7c0,4.3,3.5,7.8,7.8,7.8s7.8-3.5,7.8-7.8V138.2h219.2 C338.5,138.2,342,134.7,342,130.4z"/></symbol><symbol viewBox="0 0 512 512" id="icon-options" xmlns="http://www.w3.org/2000/svg"><path d="M256,512C114.8,512,0,397.2,0,256S114.8,0,256,0s256,114.8,256,256S397.2,512,256,512z M256,25.6 C128.9,25.6,25.6,129,25.6,256c0,127.1,103.3,230.4,230.4,230.4S486.4,383.1,486.4,256C486.4,129,383.1,25.6,256,25.6z M256,282.6 c14.7,0,26.6-11.9,26.6-26.6s-11.9-26.6-26.6-26.6c-14.7,0-26.6,11.9-26.6,26.6S241.3,282.6,256,282.6z M154.6,282.6 c14.7,0,26.6-11.9,26.6-26.6s-11.9-26.6-26.6-26.6c-14.7,0-26.6,11.9-26.6,26.6S139.9,282.6,154.6,282.6z M357.4,282.6 c14.7,0,26.6-11.9,26.6-26.6s-11.9-26.6-26.6-26.6c-14.7,0-26.6,11.9-26.6,26.6S342.8,282.6,357.4,282.6z"/></symbol></svg>